<svg width="27" height="22" viewBox="0 0 27 22" fill="none" xmlns="http://www.w3.org/2000/svg">
<path fill-rule="evenodd" clip-rule="evenodd" d="M5.7055 0.30423C4.18394 0.30423 3.05805 1.6286 3.10847 3.06485C3.15685 4.44469 3.09399 6.23179 2.64159 7.68917C2.18758 9.15064 1.42029 10.0768 0.166748 10.1956V11.5377C1.42029 11.6568 2.18758 12.5825 2.64154 14.0442C3.09399 15.5016 3.1568 17.2887 3.10841 18.6685C3.058 20.1045 4.18388 21.4291 5.70571 21.4291H21.2967C22.8183 21.4291 23.9439 20.1048 23.8935 18.6685C23.8451 17.2887 23.908 15.5016 24.3604 14.0442C24.8144 12.5825 25.5798 11.6565 26.8334 11.5377V10.1956C25.5799 10.0765 24.8145 9.15085 24.3604 7.68917C23.9079 6.232 23.8451 4.44469 23.8935 3.06485C23.9439 1.62881 22.8183 0.30423 21.2967 0.30423H5.70529H5.7055ZM18.2459 13.308C18.2459 15.2856 16.7625 16.485 14.3008 16.485H10.1102C9.99036 16.485 9.8754 16.4377 9.79064 16.3534C9.70588 16.2691 9.65826 16.1548 9.65826 16.0356V5.69785C9.65826 5.57864 9.70588 5.46432 9.79064 5.38003C9.8754 5.29573 9.99036 5.24838 10.1102 5.24838H14.2769C16.3296 5.24838 17.6767 6.35408 17.6767 8.05168C17.6767 9.2432 16.7704 10.3099 15.6159 10.4968V10.5589C17.1876 10.7304 18.2459 11.8129 18.2459 13.308V13.308ZM13.8438 6.67318H11.4545V10.0294H13.4669C15.0226 10.0294 15.8804 9.40645 15.8804 8.29293C15.8803 7.24939 15.1428 6.67318 13.8438 6.67318ZM11.4545 11.3611V15.0598H13.9317C15.5515 15.0598 16.4095 14.4134 16.4095 13.1988C16.4095 11.9841 15.5275 11.3609 13.8276 11.3609H11.4545V11.3611Z" fill="#7952B3"/>
</svg>
