<svg width="37" height="36" viewBox="0 0 37 36" fill="none" xmlns="http://www.w3.org/2000/svg">
<path d="M33.5 13.3971C33.5 12.4883 33.5 12.034 33.3203 11.8236C33.1644 11.641 32.9305 11.5441 32.6912 11.563C32.4153 11.5847 32.094 11.906 31.4515 12.5485L26 18L31.4515 23.4515C32.094 24.094 32.4153 24.4153 32.6912 24.437C32.9305 24.4559 33.1644 24.359 33.3203 24.1764C33.5 23.966 33.5 23.5117 33.5 22.6029V13.3971Z" stroke="#1470EF" stroke-width="1.6" stroke-linecap="round" stroke-linejoin="round"/>
<path d="M3.5 14.7C3.5 12.1798 3.5 10.9196 3.99047 9.95704C4.4219 9.11031 5.11031 8.4219 5.95704 7.99047C6.91965 7.5 8.17976 7.5 10.7 7.5H18.8C21.3202 7.5 22.5804 7.5 23.543 7.99047C24.3897 8.4219 25.0781 9.11031 25.5095 9.95704C26 10.9196 26 12.1798 26 14.7V21.3C26 23.8202 26 25.0804 25.5095 26.043C25.0781 26.8897 24.3897 27.5781 23.543 28.0095C22.5804 28.5 21.3202 28.5 18.8 28.5H10.7C8.17976 28.5 6.91965 28.5 5.95704 28.0095C5.11031 27.5781 4.4219 26.8897 3.99047 26.043C3.5 25.0804 3.5 23.8202 3.5 21.3V14.7Z" stroke="#1470EF" stroke-width="1.6" stroke-linecap="round" stroke-linejoin="round"/>
</svg>
