<svg width="33" height="33" viewBox="0 0 33 33" fill="none" xmlns="http://www.w3.org/2000/svg">
<path d="M24.4729 13.557L19.1395 8.22371M3.80615 28.8904L8.31864 28.389C8.86996 28.3277 9.14562 28.2971 9.40328 28.2137C9.63187 28.1397 9.84942 28.0351 10.05 27.9029C10.2761 27.7538 10.4722 27.5577 10.8645 27.1654L28.4729 9.55705C29.9456 8.08429 29.9456 5.69647 28.4729 4.22371C27.0001 2.75095 24.6123 2.75095 23.1395 4.22371L5.53112 21.8321C5.13888 22.2243 4.94276 22.4204 4.79367 22.6465C4.6614 22.8471 4.55684 23.0647 4.48284 23.2933C4.39943 23.5509 4.3688 23.8266 4.30754 24.3779L3.80615 28.8904Z" stroke="white" stroke-width="2.13333" stroke-linecap="round" stroke-linejoin="round"/>
</svg>
