<svg width="18" height="28" viewBox="0 0 18 28" fill="none" xmlns="http://www.w3.org/2000/svg">
<path d="M4.55553 27.3333C7.00886 27.3333 8.99998 25.3422 8.99998 22.8889V18.4445H4.55553C2.1022 18.4445 0.111084 20.4356 0.111084 22.8889C0.111084 25.3422 2.1022 27.3333 4.55553 27.3333Z" fill="#0ACF83"/>
<path d="M0.111084 14C0.111084 11.5466 2.1022 9.55553 4.55553 9.55553H8.99998V18.4444H4.55553C2.1022 18.4444 0.111084 16.4533 0.111084 14Z" fill="#A259FF"/>
<path d="M0.111084 5.11111C0.111084 2.65778 2.1022 0.666672 4.55553 0.666672H8.99998V9.55556H4.55553C2.1022 9.55556 0.111084 7.56445 0.111084 5.11111Z" fill="#F24E1E"/>
<path d="M9 0.666672H13.4445C15.8978 0.666672 17.8889 2.65778 17.8889 5.11111C17.8889 7.56445 15.8978 9.55556 13.4445 9.55556H9V0.666672Z" fill="#FF7262"/>
<path d="M17.8889 14C17.8889 16.4533 15.8978 18.4444 13.4445 18.4444C10.9911 18.4444 9 16.4533 9 14C9 11.5466 10.9911 9.55553 13.4445 9.55553C15.8978 9.55553 17.8889 11.5466 17.8889 14Z" fill="#1ABCFE"/>
</svg>
