<svg width="64" height="65" viewBox="0 0 64 65" fill="none" xmlns="http://www.w3.org/2000/svg">
<path d="M37.3337 6.55225V17.567C37.3337 19.0605 37.3337 19.8072 37.6243 20.3777C37.88 20.8794 38.2879 21.2874 38.7897 21.543C39.3601 21.8337 40.1069 21.8337 41.6003 21.8337H52.6151M37.3337 45.8335H21.3337M42.667 35.1668H21.3337M53.3337 27.1354V46.3668C53.3337 50.8472 53.3337 53.0875 52.4617 54.7987C51.6947 56.304 50.4709 57.5279 48.9656 58.2949C47.2543 59.1668 45.0141 59.1668 40.5337 59.1668H23.467C18.9866 59.1668 16.7464 59.1668 15.0351 58.2949C13.5298 57.5279 12.3059 56.304 11.5389 54.7987C10.667 53.0875 10.667 50.8472 10.667 46.3668V18.6335C10.667 14.1531 10.667 11.9129 11.5389 10.2016C12.3059 8.69628 13.5298 7.47243 15.0351 6.70544C16.7464 5.8335 18.9866 5.8335 23.467 5.8335H32.0317C33.9885 5.8335 34.9668 5.8335 35.8875 6.05454C36.7038 6.25051 37.4842 6.57375 38.1999 7.01237C39.0073 7.50711 39.6991 8.19892 41.0827 9.58253L49.5846 18.0845C50.9682 19.4681 51.6601 20.1599 52.1548 20.9672C52.5934 21.683 52.9166 22.4634 53.1126 23.2796C53.3337 24.2003 53.3337 25.1787 53.3337 27.1354Z" stroke="#1849A9" stroke-width="2.4" stroke-linecap="round" stroke-linejoin="round"/>
</svg>
