<svg width="32" height="32" viewBox="0 0 32 32" fill="none" xmlns="http://www.w3.org/2000/svg">
<rect width="32" height="32" rx="16" fill="white"/>
<path fill-rule="evenodd" clip-rule="evenodd" d="M25.872 16.2362C25.872 15.4987 25.8058 14.7896 25.6829 14.1089H15.888V18.1318H21.4851C21.244 19.4318 20.5113 20.5332 19.4098 21.2707V23.8802H22.7709C24.7375 22.0696 25.872 19.4034 25.872 16.2362Z" fill="#4285F4"/>
<path fill-rule="evenodd" clip-rule="evenodd" d="M15.888 26.4001C18.696 26.4001 21.0502 25.4688 22.7709 23.8804L19.4098 21.271C18.4786 21.895 17.2873 22.2637 15.888 22.2637C13.1793 22.2637 10.8866 20.4343 10.0688 17.9761H6.59421V20.6706C8.30548 24.0695 11.8226 26.4001 15.888 26.4001Z" fill="#34A853"/>
<path fill-rule="evenodd" clip-rule="evenodd" d="M10.0687 17.9756C9.86073 17.3516 9.74255 16.6851 9.74255 15.9996C9.74255 15.3142 9.86073 14.6476 10.0687 14.0236V11.3291H6.59419C5.88982 12.7331 5.48801 14.3215 5.48801 15.9996C5.48801 17.6778 5.88982 19.2662 6.59419 20.6702L10.0687 17.9756Z" fill="#FBBC05"/>
<path fill-rule="evenodd" clip-rule="evenodd" d="M15.888 9.73646C17.4149 9.73646 18.7858 10.2612 19.8637 11.2917L22.8466 8.30882C21.0455 6.63064 18.6913 5.6001 15.888 5.6001C11.8226 5.6001 8.30548 7.93064 6.59421 11.3296L10.0688 14.0241C10.8866 11.5659 13.1793 9.73646 15.888 9.73646Z" fill="#EA4335"/>
</svg>
