<svg width="26" height="28" viewBox="0 0 26 28" fill="none" xmlns="http://www.w3.org/2000/svg">
<path d="M25.8356 6.6578C25.8452 6.69294 25.85 6.72917 25.8501 6.76556V12.4231C25.8501 12.4957 25.8309 12.567 25.7943 12.6298C25.7577 12.6927 25.705 12.7448 25.6417 12.7809L20.8667 15.5148V20.9335C20.8667 21.081 20.7879 21.2171 20.6593 21.2914L10.692 26.9974C10.6692 27.0102 10.6443 27.0185 10.6194 27.0273C10.6101 27.0304 10.6012 27.036 10.5914 27.0386C10.5217 27.0568 10.4485 27.0568 10.3788 27.0386C10.3674 27.0355 10.357 27.0293 10.3461 27.0252C10.3233 27.0169 10.2995 27.0097 10.2777 26.9974L0.312445 21.2914C0.249139 21.2552 0.196538 21.2031 0.159943 21.1403C0.123349 21.0774 0.104054 21.0061 0.104004 20.9335L0.104004 3.96105C0.104004 3.92393 0.109189 3.88783 0.118522 3.85277C0.121633 3.84091 0.128892 3.83008 0.13304 3.81822C0.140818 3.79656 0.148077 3.77439 0.159485 3.75428C0.167262 3.74088 0.178669 3.73005 0.188003 3.71767C0.199928 3.70117 0.210817 3.68416 0.224817 3.66972C0.236743 3.65786 0.252298 3.64909 0.265779 3.63878C0.280816 3.62641 0.294297 3.613 0.311408 3.6032H0.311927L5.29481 0.75022C5.35791 0.714116 5.42942 0.695114 5.50222 0.695114C5.57501 0.695114 5.64653 0.714116 5.70962 0.75022L10.6925 3.6032H10.6935C10.7101 3.61352 10.7241 3.62641 10.7392 3.63827C10.7527 3.64858 10.7677 3.65786 10.7796 3.6692C10.7941 3.68416 10.8045 3.70117 10.8169 3.71767C10.8258 3.73005 10.8377 3.74088 10.8449 3.75428C10.8569 3.77491 10.8636 3.79656 10.8719 3.81822C10.8761 3.83008 10.8833 3.84091 10.8864 3.85328C10.896 3.88842 10.9009 3.92465 10.9009 3.96105V14.5619L15.0532 12.1843V6.76505C15.0532 6.72895 15.0584 6.69234 15.0677 6.6578C15.0713 6.64542 15.0781 6.63459 15.0822 6.62273C15.0905 6.60108 15.0978 6.57891 15.1092 6.5588C15.117 6.54539 15.1284 6.53456 15.1372 6.52219C15.1496 6.50569 15.16 6.48867 15.1745 6.47423C15.1864 6.46237 15.2015 6.45361 15.215 6.44329C15.2305 6.43092 15.244 6.41751 15.2606 6.40772H15.2611L20.2445 3.55473C20.3076 3.51858 20.3791 3.49955 20.4519 3.49955C20.5247 3.49955 20.5962 3.51858 20.6593 3.55473L25.6422 6.40772C25.6598 6.41803 25.6733 6.43092 25.6889 6.44278C25.7018 6.45309 25.7169 6.46237 25.7288 6.47372C25.7433 6.48867 25.7537 6.50569 25.7661 6.52219C25.7755 6.53456 25.7869 6.54539 25.7941 6.5588C25.8061 6.57891 25.8128 6.60108 25.8211 6.62273C25.8258 6.63459 25.8325 6.64542 25.8356 6.6578V6.6578ZM25.0195 12.1843V7.47971L23.2757 8.47797L20.8667 9.85728V14.5619L25.02 12.1843H25.0195ZM20.0366 20.6948V15.9871L17.667 17.3329L10.9004 21.1733V25.9254L20.0366 20.6948ZM0.934658 4.6752V20.6948L10.0698 25.9248V21.1738L5.29741 18.4879L5.29585 18.4869L5.29378 18.4858C5.2777 18.4766 5.26422 18.4632 5.24918 18.4518C5.23622 18.4415 5.22118 18.4332 5.20978 18.4219L5.20874 18.4204C5.19526 18.4075 5.18593 18.3915 5.17452 18.377C5.16415 18.3631 5.1517 18.3513 5.14341 18.3368L5.14289 18.3353C5.13356 18.3198 5.12785 18.3012 5.12111 18.2837C5.11437 18.2682 5.10556 18.2538 5.10141 18.2373V18.2368C5.09622 18.2172 5.09519 18.1966 5.09311 18.1765C5.09104 18.161 5.08689 18.1455 5.08689 18.1301V7.05277L2.67841 5.67294L0.934658 4.67571V4.6752ZM5.50274 1.58451L1.35102 3.96105L5.5017 6.33759L9.65289 3.96053L5.5017 1.58451H5.50274ZM7.66181 16.4161L10.0703 15.0373V4.6752L8.32654 5.67346L5.91754 7.05277V17.4149L7.66181 16.4161ZM20.4519 4.38902L16.3007 6.76556L20.4519 9.1421L24.6026 6.76505L20.4519 4.38902ZM20.0366 9.85728L17.6276 8.47797L15.8838 7.47971V12.1843L18.2923 13.5631L20.0366 14.5619V9.85728ZM10.4846 20.4592L16.5735 17.0024L19.6171 15.275L15.469 12.9L10.693 15.6344L6.34013 18.1264L10.4846 20.4592Z" fill="#FF2D20"/>
</svg>
