<svg width="28" height="20" viewBox="0 0 28 20" fill="none" xmlns="http://www.w3.org/2000/svg">
<path d="M23.6287 11.4971C22.6984 11.502 21.8898 11.726 21.2128 12.0572C20.9644 11.5653 20.716 11.1269 20.6722 10.8054C20.6234 10.4304 20.565 10.2015 20.6234 9.75336C20.6819 9.30525 20.9449 8.66718 20.94 8.61847C20.9352 8.56976 20.8816 8.34084 20.3458 8.33597C19.81 8.3311 19.3473 8.43825 19.2937 8.5795C19.2401 8.72076 19.1379 9.04223 19.0697 9.37344C18.9771 9.86052 17.9981 11.5994 17.438 12.5102C17.2577 12.1546 17.1019 11.8429 17.0678 11.5945C17.0191 11.2195 16.9606 10.9905 17.0191 10.5424C17.0775 10.0943 17.3405 9.45624 17.3357 9.40754C17.3308 9.35883 17.2772 9.1299 16.7414 9.12503C16.2057 9.12016 15.7429 9.22732 15.6894 9.36857C15.6358 9.50982 15.5773 9.84103 15.4653 10.1625C15.3533 10.484 14.0528 13.387 13.7118 14.1371C13.5365 14.5218 13.3855 14.8287 13.2783 15.0381C13.2783 15.0381 13.2735 15.0528 13.2588 15.0771C13.1663 15.2573 13.1127 15.3547 13.1127 15.3547C13.1127 15.3547 13.1127 15.3547 13.1127 15.3596C13.0397 15.4911 12.9617 15.6129 12.9228 15.6129C12.8935 15.6129 12.84 15.2622 12.9325 14.7849C13.1273 13.7766 13.5901 12.2082 13.5852 12.1547C13.5852 12.1254 13.6729 11.8527 13.2832 11.7114C12.9033 11.5702 12.7669 11.804 12.7328 11.804C12.6987 11.804 12.6744 11.8868 12.6744 11.8868C12.6744 11.8868 13.0981 10.1235 11.8658 10.1235C11.0962 10.1235 10.0344 10.9662 9.50835 11.726C9.17714 11.9062 8.47088 12.291 7.71591 12.705C7.42853 12.8658 7.13141 13.0265 6.85378 13.1775C6.8343 13.158 6.81481 13.1337 6.79533 13.1142C5.30488 11.5214 2.54802 10.3963 2.66492 8.25803C2.70876 7.47871 2.97665 5.43299 7.95944 2.94889C12.0606 0.927524 15.324 1.48766 15.8891 2.72971C16.6976 4.50267 14.1405 7.79531 9.90288 8.27265C8.28579 8.45287 7.43827 7.82941 7.22396 7.59561C6.9999 7.35207 6.96581 7.33746 6.88301 7.38617C6.74662 7.45923 6.8343 7.67841 6.88301 7.80505C7.00965 8.13626 7.53082 8.72076 8.41243 9.00813C9.19175 9.26141 11.0865 9.40267 13.3806 8.51618C15.9475 7.52255 17.9543 4.76082 17.3649 2.4472C16.7755 0.0994934 12.8789 -0.674959 9.19175 0.635278C6.9999 1.4146 4.62297 2.64204 2.91333 4.23965C0.882217 6.13925 0.560746 7.79044 0.692257 8.48209C1.16472 10.937 4.54991 12.5346 5.90398 13.7182C5.83579 13.7571 5.77247 13.7912 5.71889 13.8205C5.04185 14.1565 2.46035 15.5057 1.8174 16.9329C1.08679 18.55 1.9343 19.7092 2.49444 19.8651C4.23331 20.3473 6.02088 19.4803 6.98042 18.0483C7.93996 16.6163 7.82306 14.7556 7.37982 13.9033C7.37495 13.8935 7.37008 13.8838 7.36034 13.874C7.53569 13.7717 7.71591 13.6646 7.89125 13.5623C8.23708 13.3577 8.57803 13.1678 8.87028 13.0119C8.70467 13.4649 8.5829 14.0055 8.52445 14.7849C8.45139 15.7006 8.82644 16.889 9.31839 17.3566C9.53758 17.5612 9.79573 17.5661 9.96133 17.5661C10.5361 17.5661 10.7942 17.0887 11.0816 16.5237C11.4323 15.8321 11.7489 15.0284 11.7489 15.0284C11.7489 15.0284 11.3544 17.2008 12.4259 17.2008C12.8156 17.2008 13.2101 16.6942 13.3855 16.4361C13.3855 16.4409 13.3855 16.4409 13.3855 16.4409C13.3855 16.4409 13.3952 16.4263 13.4147 16.3922C13.4537 16.3289 13.478 16.2899 13.478 16.2899C13.478 16.2899 13.478 16.2851 13.478 16.2802C13.6339 16.0074 13.9846 15.3888 14.5058 14.3611C15.1779 13.0363 15.8257 11.3802 15.8257 11.3802C15.8257 11.3802 15.8842 11.7845 16.0839 12.4566C16.2008 12.8512 16.4443 13.2847 16.6392 13.7036C16.4833 13.9227 16.3859 14.0445 16.3859 14.0445C16.3859 14.0445 16.3859 14.0445 16.3907 14.0494C16.2641 14.215 16.1277 14.3952 15.9767 14.5706C15.4458 15.2038 14.8126 15.9295 14.7249 16.1389C14.6227 16.3873 14.647 16.5676 14.8418 16.7137C14.9831 16.8208 15.2364 16.8355 15.4945 16.8208C15.9719 16.7868 16.3079 16.6699 16.4736 16.5968C16.7317 16.5042 17.0337 16.363 17.3162 16.1536C17.8374 15.7688 18.154 15.2184 18.1247 14.4926C18.1101 14.0932 17.9786 13.6938 17.8179 13.3188C17.8666 13.2506 17.9104 13.1824 17.9591 13.1142C18.7823 11.9111 19.4204 10.5911 19.4204 10.5911C19.4204 10.5911 19.4788 10.9954 19.6785 11.6676C19.7759 12.0085 19.9756 12.3787 20.151 12.7391C19.3765 13.3675 18.8992 14.0981 18.7287 14.5754C18.4219 15.4619 18.6605 15.8613 19.1135 15.9539C19.3181 15.9977 19.6103 15.9003 19.8246 15.8077C20.0974 15.7201 20.4189 15.5691 20.7257 15.345C21.2469 14.9602 21.7486 14.4244 21.7194 13.6987C21.7048 13.3675 21.6171 13.0411 21.4953 12.7245C22.1529 12.4518 23.0004 12.3008 24.0817 12.4274C26.4002 12.7002 26.858 14.1468 26.7704 14.7556C26.6827 15.3645 26.1956 15.6957 26.0349 15.798C25.8741 15.9003 25.8206 15.9344 25.8352 16.0074C25.8547 16.1146 25.9326 16.1097 26.069 16.0902C26.2589 16.0561 27.2867 15.5983 27.3305 14.478C27.4036 13.046 26.0397 11.4825 23.6287 11.4971ZM5.74325 17.5271C4.97366 18.3649 3.90209 18.6815 3.43937 18.4136C2.94255 18.1262 3.13738 16.889 4.08231 16.0026C4.65706 15.4619 5.39742 14.9602 5.88937 14.6534C6.0014 14.5852 6.167 14.4877 6.3667 14.366C6.4008 14.3465 6.42028 14.3368 6.42028 14.3368C6.45925 14.3124 6.49821 14.288 6.53718 14.2637C6.88301 15.5301 6.55179 16.6455 5.74325 17.5271ZM11.3446 13.7182C11.0767 14.3708 10.5166 16.0415 10.1756 15.949C9.8834 15.871 9.70318 14.6046 10.1172 13.3529C10.3266 12.7245 10.7699 11.9744 11.028 11.6822C11.4469 11.2146 11.9096 11.0587 12.0217 11.2487C12.1629 11.4971 11.5102 13.309 11.3446 13.7182ZM15.967 15.9295C15.855 15.9879 15.7478 16.0269 15.6991 15.9977C15.665 15.9782 15.7478 15.9003 15.7478 15.9003C15.7478 15.9003 16.3274 15.2768 16.5564 14.9943C16.6879 14.8287 16.8437 14.6339 17.0093 14.4147C17.0093 14.4342 17.0093 14.4585 17.0093 14.478C17.0093 15.2232 16.2885 15.7249 15.967 15.9295ZM19.5324 15.1161C19.4496 15.0576 19.4642 14.8628 19.7418 14.254C19.849 14.0153 20.1023 13.6159 20.5358 13.2311C20.5845 13.387 20.6186 13.5379 20.6137 13.6792C20.6088 14.6193 19.9367 14.97 19.5324 15.1161Z" fill="#CD6799"/>
</svg>
