<svg width="28" height="16" viewBox="0 0 28 16" fill="none" xmlns="http://www.w3.org/2000/svg">
<path d="M14 0.00218201C10.4443 0.00218201 8.22213 1.77951 7.33313 5.33384C8.66663 3.55651 10.2222 2.89026 11.9999 3.33443C13.0143 3.58785 13.7392 4.32379 14.5418 5.1381C15.849 6.46459 17.3619 7.99983 20.6668 7.99983C24.2221 7.99983 26.4446 6.2225 27.3333 2.66784C26.0001 4.44517 24.4445 5.11176 22.6665 4.66759C21.6525 4.41416 20.9276 3.67822 20.1249 2.86392C18.8178 1.53742 17.3045 0.00218201 14 0.00218201V0.00218201ZM7.33313 7.99983C3.77779 7.99983 1.55529 9.77716 0.666626 13.3318C1.99979 11.5545 3.55538 10.8879 5.33338 11.3324C6.34742 11.5862 7.07236 12.3218 7.875 13.1357C9.18215 14.4622 10.6954 15.9978 14 15.9978C17.5556 15.9978 19.7778 14.2205 20.6668 10.6658C19.3333 12.4432 17.7777 13.1097 16 12.6652C14.9857 12.4121 14.2607 11.6759 13.4581 10.8619C12.1509 9.53541 10.638 7.99983 7.33313 7.99983V7.99983Z" fill="#06B6D4"/>
</svg>
