<svg width="37" height="36" viewBox="0 0 37 36" fill="none" xmlns="http://www.w3.org/2000/svg">
<path d="M3.5 18C3.5 26.2843 10.2157 33 18.5 33C20.9853 33 23 30.9853 23 28.5V27.75C23 27.0534 23 26.7051 23.0385 26.4126C23.3043 24.3933 24.8933 22.8043 26.9126 22.5385C27.2051 22.5 27.5534 22.5 28.25 22.5H29C31.4853 22.5 33.5 20.4853 33.5 18C33.5 9.71573 26.7843 3 18.5 3C10.2157 3 3.5 9.71573 3.5 18Z" stroke="#1470EF" stroke-width="1.6" stroke-linecap="round" stroke-linejoin="round"/>
<path d="M11 19.5C11.8284 19.5 12.5 18.8284 12.5 18C12.5 17.1716 11.8284 16.5 11 16.5C10.1716 16.5 9.5 17.1716 9.5 18C9.5 18.8284 10.1716 19.5 11 19.5Z" stroke="#1470EF" stroke-width="1.6" stroke-linecap="round" stroke-linejoin="round"/>
<path d="M24.5 13.5C25.3284 13.5 26 12.8284 26 12C26 11.1716 25.3284 10.5 24.5 10.5C23.6716 10.5 23 11.1716 23 12C23 12.8284 23.6716 13.5 24.5 13.5Z" stroke="#1470EF" stroke-width="1.6" stroke-linecap="round" stroke-linejoin="round"/>
<path d="M15.5 12C16.3284 12 17 11.3284 17 10.5C17 9.67157 16.3284 9 15.5 9C14.6716 9 14 9.67157 14 10.5C14 11.3284 14.6716 12 15.5 12Z" stroke="#1470EF" stroke-width="1.6" stroke-linecap="round" stroke-linejoin="round"/>
</svg>
