<svg width="360" height="405" viewBox="0 0 360 405" fill="none" xmlns="http://www.w3.org/2000/svg">
<line x1="3.1441" y1="401.659" x2="216.464" y2="401.659" stroke="#222325" stroke-width="6.28821" stroke-linecap="round"/>
<line x1="3.1441" y1="401.659" x2="216.464" y2="401.659" stroke="black" stroke-opacity="0.2" stroke-width="6.28821" stroke-linecap="round"/>
<path d="M68.2415 332.749C56.7943 337.679 49.163 350.226 46.0412 370.391C42.9193 390.555 53.4291 400.881 68.345 400.881H98.8236L90.442 349.777C90.442 349.777 83.8514 330.957 68.2415 332.749Z" fill="#222325"/>
<path d="M68.2415 332.749C56.7943 337.679 49.163 350.226 46.0412 370.391C42.9193 390.555 53.4291 400.881 68.345 400.881H98.8236L90.442 349.777C90.442 349.777 83.8514 330.957 68.2415 332.749Z" fill="black" fill-opacity="0.2"/>
<path d="M68.2415 332.749C56.7943 337.679 49.163 350.226 46.0412 370.391C42.9193 390.555 53.4291 400.881 68.345 400.881H98.8236L90.442 349.777C90.442 349.777 83.8514 330.957 68.2415 332.749Z" stroke="#222325" stroke-width="5.50218" stroke-linejoin="round"/>
<path d="M68.2415 332.749C56.7943 337.679 49.163 350.226 46.0412 370.391C42.9193 390.555 53.4291 400.881 68.345 400.881H98.8236L90.442 349.777C90.442 349.777 83.8514 330.957 68.2415 332.749Z" stroke="black" stroke-opacity="0.2" stroke-width="5.50218" stroke-linejoin="round"/>
<path d="M115.059 332.749C101.76 337.679 92.8943 350.226 89.2675 370.391C85.6407 390.555 97.8505 400.881 115.179 400.881H150.588L140.851 349.777C140.851 349.777 133.194 330.957 115.059 332.749Z" fill="#222325"/>
<path d="M115.059 332.749C101.76 337.679 92.8943 350.226 89.2675 370.391C85.6407 390.555 97.8505 400.881 115.179 400.881H150.588L140.851 349.777C140.851 349.777 133.194 330.957 115.059 332.749Z" fill="black" fill-opacity="0.2"/>
<path d="M115.059 332.749C101.76 337.679 92.8943 350.226 89.2675 370.391C85.6407 390.555 97.8505 400.881 115.179 400.881H150.588L140.851 349.777C140.851 349.777 133.194 330.957 115.059 332.749Z" stroke="#222325" stroke-width="5.50218" stroke-linejoin="round"/>
<path d="M115.059 332.749C101.76 337.679 92.8943 350.226 89.2675 370.391C85.6407 390.555 97.8505 400.881 115.179 400.881H150.588L140.851 349.777C140.851 349.777 133.194 330.957 115.059 332.749Z" stroke="black" stroke-opacity="0.2" stroke-width="5.50218" stroke-linejoin="round"/>
<g filter="url(#filter0_i_426_1951)">
<path d="M57.578 322.531C44.566 325.542 36.0784 355.221 36.0784 376.227C36.0783 397.233 50.7064 395.345 66.6445 395.345C79.6032 395.345 82.1896 383.77 77.728 371.336L85.9454 380.228L88.6274 346.086C88.6274 346.086 74.2576 320.628 57.578 322.531Z" fill="white"/>
</g>
<path d="M61.8074 349.55C69.3449 355.382 74.9262 363.528 77.728 371.336M77.728 371.336C82.1896 383.77 79.6032 395.345 66.6445 395.345C50.7064 395.345 36.0783 397.233 36.0784 376.227C36.0784 355.221 44.566 325.542 57.578 322.531C74.2576 320.628 88.6274 346.086 88.6274 346.086L85.9454 380.228L77.728 371.336Z" stroke="#222325" stroke-width="6.28821" stroke-linecap="round" stroke-linejoin="round"/>
<path d="M61.8074 349.55C69.3449 355.382 74.9262 363.528 77.728 371.336M77.728 371.336C82.1896 383.77 79.6032 395.345 66.6445 395.345C50.7064 395.345 36.0783 397.233 36.0784 376.227C36.0784 355.221 44.566 325.542 57.578 322.531C74.2576 320.628 88.6274 346.086 88.6274 346.086L85.9454 380.228L77.728 371.336Z" stroke="black" stroke-opacity="0.2" stroke-width="6.28821" stroke-linecap="round" stroke-linejoin="round"/>
<path d="M113.657 330.394C100.277 335.277 91.3565 347.706 87.7074 367.682C84.0583 387.657 96.2221 400.095 113.657 400.095C136.736 400.095 121.511 374.071 113.657 363.417L135.958 392.985L139.608 347.262C139.608 347.262 131.904 328.618 113.657 330.394Z" fill="white"/>
<path d="M113.657 330.394C100.277 335.277 91.3565 347.706 87.7074 367.682C84.0583 387.657 96.2221 400.095 113.657 400.095C136.736 400.095 121.511 374.071 113.657 363.417L135.958 392.985L139.608 347.262C139.608 347.262 131.904 328.618 113.657 330.394Z" stroke="#222325" stroke-width="6.28821" stroke-linejoin="round"/>
<path d="M113.657 330.394C100.277 335.277 91.3565 347.706 87.7074 367.682C84.0583 387.657 96.2221 400.095 113.657 400.095C136.736 400.095 121.511 374.071 113.657 363.417L135.958 392.985L139.608 347.262C139.608 347.262 131.904 328.618 113.657 330.394Z" stroke="black" stroke-opacity="0.2" stroke-width="6.28821" stroke-linejoin="round"/>
<g filter="url(#filter1_i_426_1951)">
<path fill-rule="evenodd" clip-rule="evenodd" d="M94.5487 321.332L93.454 384.41C93.3627 389.674 95.5634 394.312 100.127 395.691C104.083 396.887 109.112 397.51 113.38 395.204C116.959 393.272 118.087 388.76 118.15 384.936L119.19 322.233L94.5487 321.332Z" fill="#1470EF"/>
<path d="M116.984 297.944L97.476 302.092C96.0303 302.399 94.8391 303.816 94.8152 305.256L94.5487 321.332L119.19 322.233L119.558 299.996C119.582 298.555 118.43 297.637 116.984 297.944Z" fill="#222325"/>
<path d="M116.984 297.944L97.476 302.092C96.0303 302.399 94.8391 303.816 94.8152 305.256L94.5487 321.332L119.19 322.233L119.558 299.996C119.582 298.555 118.43 297.637 116.984 297.944Z" fill="black" fill-opacity="0.2"/>
</g>
<path d="M91.7398 305.91L91.4733 321.985L91.4733 321.986L90.3787 385.061C90.2729 391.154 92.826 397.018 98.7029 398.795C102.753 400.019 108.757 400.976 114.277 397.994C117.147 396.444 118.902 393.892 119.891 391.413C120.857 388.992 121.19 386.44 121.225 384.283L122.265 321.579L122.634 299.342C122.688 296.09 120.106 294.148 117.036 294.801L97.5281 298.948C94.4585 299.601 91.7937 302.658 91.7398 305.91Z" stroke="#222325" stroke-width="6.28821" stroke-linejoin="round"/>
<path d="M91.7398 305.91L91.4733 321.985L91.4733 321.986L90.3787 385.061C90.2729 391.154 92.826 397.018 98.7029 398.795C102.753 400.019 108.757 400.976 114.277 397.994C117.147 396.444 118.902 393.892 119.891 391.413C120.857 388.992 121.19 386.44 121.225 384.283L122.265 321.579L122.634 299.342C122.688 296.09 120.106 294.148 117.036 294.801L97.5281 298.948C94.4585 299.601 91.7937 302.658 91.7398 305.91Z" stroke="black" stroke-opacity="0.2" stroke-width="6.28821" stroke-linejoin="round"/>
<g filter="url(#filter2_i_426_1951)">
<path fill-rule="evenodd" clip-rule="evenodd" d="M137.149 321.409L136.087 382.594C135.975 389.054 138.647 394.858 144.392 396.217C147.621 396.981 151.333 397.221 154.705 395.877C159.234 394.072 160.695 388.366 160.773 383.673L161.79 322.31L137.149 321.409Z" fill="#1470EF"/>
<path d="M159.584 298.021L140.077 302.169C138.631 302.476 137.44 303.893 137.416 305.334L137.149 321.409L161.79 322.31L162.159 300.073C162.183 298.633 161.03 297.714 159.584 298.021Z" fill="#222325"/>
<path d="M159.584 298.021L140.077 302.169C138.631 302.476 137.44 303.893 137.416 305.334L137.149 321.409L161.79 322.31L162.159 300.073C162.183 298.633 161.03 297.714 159.584 298.021Z" fill="black" fill-opacity="0.2"/>
</g>
<path d="M134.34 305.987L134.074 322.062L134.074 322.063L133.012 383.245C132.887 390.47 135.878 397.648 143.111 399.36C146.532 400.169 150.929 400.557 155.208 398.852C158.756 397.437 160.958 394.486 162.188 391.56C163.385 388.713 163.805 385.615 163.848 383.019L164.866 321.656L165.234 299.419C165.288 296.167 162.706 294.225 159.637 294.878L140.129 299.025C137.059 299.678 134.394 302.736 134.34 305.987Z" stroke="#222325" stroke-width="6.28821" stroke-linejoin="round"/>
<path d="M134.34 305.987L134.074 322.062L134.074 322.063L133.012 383.245C132.887 390.47 135.878 397.648 143.111 399.36C146.532 400.169 150.929 400.557 155.208 398.852C158.756 397.437 160.958 394.486 162.188 391.56C163.385 388.713 163.805 385.615 163.848 383.019L164.866 321.656L165.234 299.419C165.288 296.167 162.706 294.225 159.637 294.878L140.129 299.025C137.059 299.678 134.394 302.736 134.34 305.987Z" stroke="black" stroke-opacity="0.2" stroke-width="6.28821" stroke-linejoin="round"/>
<path d="M291.908 191.825C331.138 178.856 359.443 141.926 359.443 98.3937C359.443 44.0518 315.337 -0.000976562 260.929 -0.000976562C206.521 -0.000976562 162.415 44.0518 162.415 98.3937C162.415 145.498 195.555 184.872 239.819 194.524V220.613C239.819 223.79 243.391 225.654 245.997 223.837L291.908 191.825Z" fill="#FABF48"/>
<path d="M254.015 36.3955C250.895 36.3955 248.4 38.9856 248.516 42.1026L251.284 116.37C251.394 119.327 253.823 121.667 256.782 121.667H264.445C267.299 121.667 269.679 119.485 269.926 116.642L276.384 42.3743C276.664 39.1596 274.13 36.3955 270.903 36.3955H254.015ZM260.379 133.112C255.719 133.112 251.905 134.596 248.939 137.563C245.549 140.53 244.066 144.345 244.066 149.008C244.066 153.671 245.549 157.486 248.939 160.453C251.905 163.42 255.719 165.116 260.379 165.116C265.04 165.116 268.854 163.632 272.244 160.665C275.21 157.698 276.904 153.671 276.904 149.008C276.904 144.345 275.21 140.53 272.244 137.563C269.066 134.596 265.04 133.112 260.379 133.112Z" fill="#222325"/>
<path d="M254.015 36.3955C250.895 36.3955 248.4 38.9856 248.516 42.1026L251.284 116.37C251.394 119.327 253.823 121.667 256.782 121.667H264.445C267.299 121.667 269.679 119.485 269.926 116.642L276.384 42.3743C276.664 39.1596 274.13 36.3955 270.903 36.3955H254.015ZM260.379 133.112C255.719 133.112 251.905 134.596 248.939 137.563C245.549 140.53 244.066 144.345 244.066 149.008C244.066 153.671 245.549 157.486 248.939 160.453C251.905 163.42 255.719 165.116 260.379 165.116C265.04 165.116 268.854 163.632 272.244 160.665C275.21 157.698 276.904 153.671 276.904 149.008C276.904 144.345 275.21 140.53 272.244 137.563C269.066 134.596 265.04 133.112 260.379 133.112Z" fill="black" fill-opacity="0.2"/>
<path d="M186.449 147.45C186.399 147.44 186.349 147.431 186.299 147.423L169.885 144.807C169.265 144.68 168.57 144.573 167.821 144.458C163.718 143.827 158.012 142.95 154.363 137.206C152.044 133.554 152.476 130.106 153.589 125.558C153.705 125.087 153.83 124.599 153.959 124.095C155.01 120.001 156.324 114.88 154.724 109.471C153.572 105.577 150.37 103.377 146.941 102.198C143.523 101.023 139.38 100.664 135.253 100.726C126.965 100.85 117.777 102.697 112.223 104.346C101.324 107.583 70.6017 120.147 59.1616 126.369C53.185 129.62 45.0601 135.949 37.8637 143.578C30.6996 151.173 24.1034 160.425 21.6574 169.614C17.0644 186.869 16.6605 197.753 17.8187 210.13C18.9522 222.245 21.8898 242.623 24.2352 254.372C26.7152 266.795 35.889 282.109 47.6025 293.544C62.1882 307.782 76.3824 319.101 97.1758 314.663L171.215 304.547C171.22 304.547 171.225 304.546 171.23 304.545C182.526 303.102 191.206 297.372 198.613 289.288C202.464 285.086 206.191 278.65 209.062 272.514C211.924 266.396 214.147 260.121 214.764 256.111C215.315 252.531 217.004 241.25 218.557 229.73C220.092 218.334 221.545 206.347 221.545 201.579C221.545 192.495 221.008 181.272 216.415 170.674C213.332 163.561 209.708 158.45 204.739 154.748C199.811 151.076 193.835 148.998 186.449 147.45Z" stroke="#222325" stroke-width="6.28821" stroke-linecap="round" stroke-linejoin="round"/>
<path d="M186.449 147.45C186.399 147.44 186.349 147.431 186.299 147.423L169.885 144.807C169.265 144.68 168.57 144.573 167.821 144.458C163.718 143.827 158.012 142.95 154.363 137.206C152.044 133.554 152.476 130.106 153.589 125.558C153.705 125.087 153.83 124.599 153.959 124.095C155.01 120.001 156.324 114.88 154.724 109.471C153.572 105.577 150.37 103.377 146.941 102.198C143.523 101.023 139.38 100.664 135.253 100.726C126.965 100.85 117.777 102.697 112.223 104.346C101.324 107.583 70.6017 120.147 59.1616 126.369C53.185 129.62 45.0601 135.949 37.8637 143.578C30.6996 151.173 24.1034 160.425 21.6574 169.614C17.0644 186.869 16.6605 197.753 17.8187 210.13C18.9522 222.245 21.8898 242.623 24.2352 254.372C26.7152 266.795 35.889 282.109 47.6025 293.544C62.1882 307.782 76.3824 319.101 97.1758 314.663L171.215 304.547C171.22 304.547 171.225 304.546 171.23 304.545C182.526 303.102 191.206 297.372 198.613 289.288C202.464 285.086 206.191 278.65 209.062 272.514C211.924 266.396 214.147 260.121 214.764 256.111C215.315 252.531 217.004 241.25 218.557 229.73C220.092 218.334 221.545 206.347 221.545 201.579C221.545 192.495 221.008 181.272 216.415 170.674C213.332 163.561 209.708 158.45 204.739 154.748C199.811 151.076 193.835 148.998 186.449 147.45Z" stroke="black" stroke-opacity="0.2" stroke-width="6.28821" stroke-linecap="round" stroke-linejoin="round"/>
<mask id="mask0_426_1951" style="mask-type:alpha" maskUnits="userSpaceOnUse" x="20" y="103" width="199" height="210">
<path d="M49.8349 291.218C38.4234 280.096 29.6528 265.327 27.327 253.695C25.0011 242.064 22.0751 221.801 20.9497 209.794C19.8244 197.787 20.1991 187.281 24.701 170.396C29.2028 153.511 49.4593 135.232 60.7133 129.121C71.9672 123.01 102.522 110.534 113.232 107.359C123.941 104.183 148.869 100.229 151.87 110.36C154.871 120.491 145.736 129.234 151.87 138.877C157.122 147.132 166.298 147.212 169.502 147.882L186.007 150.509C200.421 153.523 207.88 158.335 213.767 171.896C218.095 181.865 218.644 192.534 218.644 201.539C218.644 210.545 212.991 248.442 211.892 255.572C210.793 262.701 203.585 279.382 196.511 287.09C189.437 294.797 181.379 300.029 171.002 301.348L96.7259 311.479C77.5946 315.607 64.465 305.476 49.8349 291.218Z" fill="#D9D9D9"/>
</mask>
<g mask="url(#mask0_426_1951)">
<ellipse cx="125.602" cy="121.205" rx="125.602" ry="121.205" transform="matrix(-1 0 0 1 240.644 93.8506)" fill="#F5F9FF"/>
<path d="M107.23 320.11L77.3334 313.99C58.1907 309.837 52.6035 304.959 43.2261 295.704C35.4414 288.02 31.4569 275.651 26.9084 263.515C22.36 251.38 17.4653 211.396 18.3239 194.786C19.1824 178.176 25.8949 164.119 33.3293 156.138C42.9483 145.812 59.4944 137.139 70.0922 132.499C80.6901 127.859 98.9775 121.993 109.106 120.492C119.234 118.991 135.331 117.112 141.367 122.368C145.61 126.062 144.881 133.951 146.516 139.994C148.151 146.037 156.643 149.75 163.864 150.394C171.084 151.039 182.935 152.614 182.935 152.614C199.527 155.023 208.634 161.41 212.267 167.019C215.901 172.629 220.662 191.554 220.52 204.166C220.378 216.779 217.519 233.809 217.519 233.809C216.603 243.641 205.948 274.973 201.096 283.672C196.697 291.558 174.004 313.99 174.004 313.99C152.441 338.556 133.541 324.407 107.23 320.11Z" fill="#DDEAFD"/>
<path d="M34.0527 247.067C38.1983 262.016 57.4251 282.541 73.5802 295.152C83.2733 302.718 92.0005 303.69 106.976 301.407C157.635 293.682 179.163 285.996 188.165 263.96C197.168 241.925 213.104 202.536 203.639 193.285C196.417 186.226 182.307 181.8 166.941 179.02C141.685 174.451 115.77 176.288 90.4241 180.329C78.9345 182.161 68.8912 183.756 48.7097 185.78C40.6106 186.593 29.9562 188.386 28.8277 200.414C27.6992 212.442 29.9072 232.117 34.0527 247.067Z" fill="#A4C2EC"/>
<g filter="url(#filter3_i_426_1951)">
<path d="M34.3486 251.448C38.4082 270.706 57.3083 286.066 68.5794 294.349C79.8504 302.632 91.5827 302.798 107.23 301.349C161.225 296.349 183.725 296.811 195.297 273.779C206.869 250.747 213.981 200.671 204.014 191.409C182.335 171.262 115.235 198.93 99.4888 201.455C83.7427 203.981 63.245 211.048 46.5989 198.039C29.9528 185.03 28.4523 193.917 28.4523 210.17C28.4523 226.423 30.2889 232.19 34.3486 251.448Z" fill="#1470EF"/>
</g>
</g>
<path d="M119.601 208.138L135.732 216.768L122.227 230.652M167.822 203.395L158.068 214.652L170.737 221.625" stroke="#222325" stroke-width="6.28821" stroke-linecap="round" stroke-linejoin="round"/>
<path d="M119.601 208.138L135.732 216.768L122.227 230.652M167.822 203.395L158.068 214.652L170.737 221.625" stroke="black" stroke-opacity="0.2" stroke-width="6.28821" stroke-linecap="round" stroke-linejoin="round"/>
<g filter="url(#filter4_i_426_1951)">
<path d="M155.315 247.606C155.315 226.072 180.224 225.457 180.224 244.529C180.224 262.536 186.585 267.208 196.673 268.245C201.751 268.767 212.429 268.539 217.55 258.496C225.034 262.785 223.954 275.654 217.55 283.063C214.071 287.088 204.044 291.661 194.31 292.033C171.11 292.917 155.315 273.628 155.315 247.606Z" fill="#1470EF"/>
</g>
<path d="M155.315 247.606C155.315 226.072 180.224 225.457 180.224 244.529C180.224 262.536 186.585 267.208 196.673 268.245C201.751 268.767 212.429 268.539 217.55 258.496C225.034 262.785 223.954 275.654 217.55 283.063C214.071 287.088 204.044 291.661 194.31 292.033C171.11 292.917 155.315 273.628 155.315 247.606Z" stroke="#222325" stroke-width="6.28821" stroke-linecap="round" stroke-linejoin="round"/>
<path d="M155.315 247.606C155.315 226.072 180.224 225.457 180.224 244.529C180.224 262.536 186.585 267.208 196.673 268.245C201.751 268.767 212.429 268.539 217.55 258.496C225.034 262.785 223.954 275.654 217.55 283.063C214.071 287.088 204.044 291.661 194.31 292.033C171.11 292.917 155.315 273.628 155.315 247.606Z" stroke="black" stroke-opacity="0.2" stroke-width="6.28821" stroke-linecap="round" stroke-linejoin="round"/>
<path d="M92.9677 177.454C83.6785 192.751 71.3874 229.119 92.5553 227.732C114.331 226.304 102.398 191.524 92.9677 177.454Z" fill="#F5F9FF"/>
<path d="M92.9677 177.454C83.6785 192.751 71.3874 229.119 92.5553 227.732C114.331 226.304 102.398 191.524 92.9677 177.454Z" stroke="#222325" stroke-width="6.28821" stroke-linecap="round" stroke-linejoin="round"/>
<path d="M92.9677 177.454C83.6785 192.751 71.3874 229.119 92.5553 227.732C114.331 226.304 102.398 191.524 92.9677 177.454Z" stroke="black" stroke-opacity="0.2" stroke-width="6.28821" stroke-linecap="round" stroke-linejoin="round"/>
<g filter="url(#filter5_i_426_1951)">
<path d="M92.745 279.632C69.83 277.66 60.0932 254.274 60.0932 245.104C54.5619 241.584 37.7192 236.376 37.7192 257.883C37.7192 257.883 47.9178 301.879 87.42 304.489C146.611 308.399 158.865 278.681 158.865 251.146C158.865 228.36 132.789 229.615 132.789 249.796C132.789 269.977 115.66 281.605 92.745 279.632Z" fill="#1470EF"/>
</g>
<path d="M92.745 279.632C69.83 277.66 60.0932 254.274 60.0932 245.104C54.5619 241.584 37.7192 236.376 37.7192 257.883C37.7192 257.883 47.9178 301.879 87.42 304.489C146.611 308.399 158.865 278.681 158.865 251.146C158.865 228.36 132.789 229.615 132.789 249.796C132.789 269.977 115.66 281.605 92.745 279.632Z" stroke="#222325" stroke-width="6.28821" stroke-linecap="round" stroke-linejoin="round"/>
<path d="M92.745 279.632C69.83 277.66 60.0932 254.274 60.0932 245.104C54.5619 241.584 37.7192 236.376 37.7192 257.883C37.7192 257.883 47.9178 301.879 87.42 304.489C146.611 308.399 158.865 278.681 158.865 251.146C158.865 228.36 132.789 229.615 132.789 249.796C132.789 269.977 115.66 281.605 92.745 279.632Z" stroke="black" stroke-opacity="0.2" stroke-width="6.28821" stroke-linecap="round" stroke-linejoin="round"/>
<path d="M214.654 362.676L242.518 330.274V356.462H267.286L254.902 371.11L273.478 380.431L242.518 397.742" stroke="#222325" stroke-width="6.28821" stroke-linecap="round" stroke-linejoin="round"/>
<path d="M214.654 362.676L242.518 330.274V356.462H267.286L254.902 371.11L273.478 380.431L242.518 397.742" stroke="black" stroke-opacity="0.2" stroke-width="6.28821" stroke-linecap="round" stroke-linejoin="round"/>
<path d="M131.093 115.636C126.839 117.823 117.744 125.066 115.403 136.539" stroke="#222325" stroke-width="6.28821" stroke-linecap="round" stroke-linejoin="round"/>
<path d="M131.093 115.636C126.839 117.823 117.744 125.066 115.403 136.539" stroke="black" stroke-opacity="0.2" stroke-width="6.28821" stroke-linecap="round" stroke-linejoin="round"/>
<defs>
<filter id="filter0_i_426_1951" x="30.5762" y="316.926" width="61.1952" height="81.6061" filterUnits="userSpaceOnUse" color-interpolation-filters="sRGB">
<feFlood flood-opacity="0" result="BackgroundImageFix"/>
<feBlend mode="normal" in="SourceGraphic" in2="BackgroundImageFix" result="shape"/>
<feColorMatrix in="SourceAlpha" type="matrix" values="0 0 0 0 0 0 0 0 0 0 0 0 0 0 0 0 0 0 127 0" result="hardAlpha"/>
<feOffset dx="-3.93013" dy="-13.3624"/>
<feGaussianBlur stdDeviation="1.17904"/>
<feComposite in2="hardAlpha" operator="arithmetic" k2="-1" k3="1"/>
<feColorMatrix type="matrix" values="0 0 0 0 0.141667 0 0 0 0 0.170204 0 0 0 0 0.425 0 0 0 0.34 0"/>
<feBlend mode="darken" in2="shape" result="effect1_innerShadow_426_1951"/>
</filter>
<filter id="filter1_i_426_1951" x="84.9417" y="289.107" width="40.7687" height="114.076" filterUnits="userSpaceOnUse" color-interpolation-filters="sRGB">
<feFlood flood-opacity="0" result="BackgroundImageFix"/>
<feBlend mode="normal" in="SourceGraphic" in2="BackgroundImageFix" result="shape"/>
<feColorMatrix in="SourceAlpha" type="matrix" values="0 0 0 0 0 0 0 0 0 0 0 0 0 0 0 0 0 0 127 0" result="hardAlpha"/>
<feOffset dx="-3.93013" dy="-13.3624"/>
<feGaussianBlur stdDeviation="1.17904"/>
<feComposite in2="hardAlpha" operator="arithmetic" k2="-1" k3="1"/>
<feColorMatrix type="matrix" values="0 0 0 0 0.321569 0 0 0 0 0.376471 0 0 0 0 0.866667 0 0 0 0.6 0"/>
<feBlend mode="normal" in2="shape" result="effect1_innerShadow_426_1951"/>
</filter>
<filter id="filter2_i_426_1951" x="127.575" y="289.184" width="40.7365" height="114.076" filterUnits="userSpaceOnUse" color-interpolation-filters="sRGB">
<feFlood flood-opacity="0" result="BackgroundImageFix"/>
<feBlend mode="normal" in="SourceGraphic" in2="BackgroundImageFix" result="shape"/>
<feColorMatrix in="SourceAlpha" type="matrix" values="0 0 0 0 0 0 0 0 0 0 0 0 0 0 0 0 0 0 127 0" result="hardAlpha"/>
<feOffset dx="-3.93013" dy="-13.3624"/>
<feGaussianBlur stdDeviation="1.17904"/>
<feComposite in2="hardAlpha" operator="arithmetic" k2="-1" k3="1"/>
<feColorMatrix type="matrix" values="0 0 0 0 0.321569 0 0 0 0 0.376471 0 0 0 0 0.866667 0 0 0 0.6 0"/>
<feBlend mode="normal" in2="shape" result="effect1_innerShadow_426_1951"/>
</filter>
<filter id="filter3_i_426_1951" x="28.4524" y="181.749" width="182.661" height="120.295" filterUnits="userSpaceOnUse" color-interpolation-filters="sRGB">
<feFlood flood-opacity="0" result="BackgroundImageFix"/>
<feBlend mode="normal" in="SourceGraphic" in2="BackgroundImageFix" result="shape"/>
<feColorMatrix in="SourceAlpha" type="matrix" values="0 0 0 0 0 0 0 0 0 0 0 0 0 0 0 0 0 0 127 0" result="hardAlpha"/>
<feOffset dx="5.50218" dy="-7.86026"/>
<feGaussianBlur stdDeviation="1.17904"/>
<feComposite in2="hardAlpha" operator="arithmetic" k2="-1" k3="1"/>
<feColorMatrix type="matrix" values="0 0 0 0 0.321569 0 0 0 0 0.376471 0 0 0 0 0.866667 0 0 0 0.6 0"/>
<feBlend mode="normal" in2="shape" result="effect1_innerShadow_426_1951"/>
</filter>
<filter id="filter4_i_426_1951" x="149.812" y="225.307" width="76.0973" height="69.8991" filterUnits="userSpaceOnUse" color-interpolation-filters="sRGB">
<feFlood flood-opacity="0" result="BackgroundImageFix"/>
<feBlend mode="normal" in="SourceGraphic" in2="BackgroundImageFix" result="shape"/>
<feColorMatrix in="SourceAlpha" type="matrix" values="0 0 0 0 0 0 0 0 0 0 0 0 0 0 0 0 0 0 127 0" result="hardAlpha"/>
<feOffset dx="-3.93013" dy="-13.3624"/>
<feGaussianBlur stdDeviation="1.17904"/>
<feComposite in2="hardAlpha" operator="arithmetic" k2="-1" k3="1"/>
<feColorMatrix type="matrix" values="0 0 0 0 0.141667 0 0 0 0 0.170204 0 0 0 0 0.425 0 0 0 0.34 0"/>
<feBlend mode="darken" in2="shape" result="effect1_innerShadow_426_1951"/>
</filter>
<filter id="filter5_i_426_1951" x="32.2171" y="228.856" width="129.792" height="79.1247" filterUnits="userSpaceOnUse" color-interpolation-filters="sRGB">
<feFlood flood-opacity="0" result="BackgroundImageFix"/>
<feBlend mode="normal" in="SourceGraphic" in2="BackgroundImageFix" result="shape"/>
<feColorMatrix in="SourceAlpha" type="matrix" values="0 0 0 0 0 0 0 0 0 0 0 0 0 0 0 0 0 0 127 0" result="hardAlpha"/>
<feOffset dx="-3.93013" dy="-13.3624"/>
<feGaussianBlur stdDeviation="1.17904"/>
<feComposite in2="hardAlpha" operator="arithmetic" k2="-1" k3="1"/>
<feColorMatrix type="matrix" values="0 0 0 0 0.141667 0 0 0 0 0.170204 0 0 0 0 0.425 0 0 0 0.34 0"/>
<feBlend mode="darken" in2="shape" result="effect1_innerShadow_426_1951"/>
</filter>
</defs>
</svg>
