<svg width="420" height="550" viewBox="0 0 420 550" fill="none" xmlns="http://www.w3.org/2000/svg">
<g filter="url(#filter0_i_426_2003)">
<path fill-rule="evenodd" clip-rule="evenodd" d="M284.642 310.229L335.065 340.936L320.634 363.543L250.084 318.894L284.642 310.229Z" fill="#1470EF"/>
<path d="M221.004 296.262L232.382 278.438C233.225 277.117 234.962 276.723 236.262 277.556L284.642 310.229L250.084 318.894L221.831 300.163C220.531 299.33 220.161 297.583 221.004 296.262Z" fill="#222325"/>
<path d="M221.004 296.262L232.382 278.438C233.225 277.117 234.962 276.723 236.262 277.556L284.642 310.229L250.084 318.894L221.831 300.163C220.531 299.33 220.161 297.583 221.004 296.262Z" fill="black" fill-opacity="0.2"/>
<path d="M399.858 357.415L382.208 385.064C379.054 390.005 373.554 392.516 368.158 392.041L398.919 343.853C402.118 347.523 402.644 353.05 399.858 357.415Z" fill="#FF6D3B"/>
<path d="M362.438 355.124L367.183 347.691C373.366 338.005 386.106 335.11 395.638 341.225L396.55 341.81C397.454 342.39 398.246 343.08 398.919 343.853L368.158 392.041C365.861 391.838 363.583 391.094 361.513 389.767L357.835 387.407L346.48 380.123L320.634 363.543L335.065 340.936L358.557 356.006C359.857 356.84 361.595 356.445 362.438 355.124Z" fill="white"/>
</g>
<path d="M286.656 307.075L238.349 274.451C238.325 274.435 238.3 274.418 238.275 274.403C235.193 272.425 231.16 273.399 229.233 276.418L217.855 294.242C215.933 297.252 216.73 301.315 219.789 303.299L248.018 322.014C248.033 322.024 248.049 322.034 248.064 322.044L286.656 307.075ZM286.656 307.075L336.992 337.729C337.015 337.743 337.038 337.757 337.061 337.772C337.067 337.775 337.073 337.779 337.078 337.783L286.656 307.075ZM337.081 337.784L359.775 352.342L364.033 345.671C371.301 334.287 386.336 330.813 397.651 338.071L398.563 338.656C399.769 339.429 400.83 340.354 401.734 341.391C401.735 341.392 401.736 341.393 401.737 341.394C406.017 346.31 406.694 353.66 403.007 359.435L385.357 387.084C381.436 393.227 374.582 396.366 367.834 395.772C364.952 395.518 362.092 394.583 359.5 392.92L355.822 390.561L344.467 383.277L318.631 366.704L318.621 366.697L248.093 322.062L337.081 337.784Z" stroke="#222325" stroke-width="7.48329" stroke-linejoin="round"/>
<path d="M286.656 307.075L238.349 274.451C238.325 274.435 238.3 274.418 238.275 274.403C235.193 272.425 231.16 273.399 229.233 276.418L217.855 294.242C215.933 297.252 216.73 301.315 219.789 303.299L248.018 322.014C248.033 322.024 248.049 322.034 248.064 322.044L286.656 307.075ZM286.656 307.075L336.992 337.729C337.015 337.743 337.038 337.757 337.061 337.772C337.067 337.775 337.073 337.779 337.078 337.783L286.656 307.075ZM337.081 337.784L359.775 352.342L364.033 345.671C371.301 334.287 386.336 330.813 397.651 338.071L398.563 338.656C399.769 339.429 400.83 340.354 401.734 341.391C401.735 341.392 401.736 341.393 401.737 341.394C406.017 346.31 406.694 353.66 403.007 359.435L385.357 387.084C381.436 393.227 374.582 396.366 367.834 395.772C364.952 395.518 362.092 394.583 359.5 392.92L355.822 390.561L344.467 383.277L318.631 366.704L318.621 366.697L248.093 322.062L337.081 337.784Z" stroke="black" stroke-opacity="0.2" stroke-width="7.48329" stroke-linejoin="round"/>
<line x1="323.763" y1="363.458" x2="336.786" y2="344.177" stroke="#222325" stroke-width="7.48329" stroke-linecap="round"/>
<line x1="323.763" y1="363.458" x2="336.786" y2="344.177" stroke="black" stroke-opacity="0.2" stroke-width="7.48329" stroke-linecap="round"/>
<line x1="367.551" y1="393.099" x2="397.689" y2="344.383" stroke="#222325" stroke-width="7.48329" stroke-linecap="round"/>
<line x1="367.551" y1="393.099" x2="397.689" y2="344.383" stroke="black" stroke-opacity="0.2" stroke-width="7.48329" stroke-linecap="round"/>
<path d="M239.377 147.931L239.217 147.697L239.023 147.49C232.399 140.401 225.401 133.316 216.547 128.905C207.513 124.405 196.838 122.815 183.065 126.031C169.79 129.131 158.829 135.241 150.079 140.118C149.87 140.235 149.662 140.35 149.455 140.466C144.949 142.976 141.184 145.045 137.871 146.348C134.535 147.659 132.22 147.955 130.488 147.537C128.79 147.126 127.627 146.172 126.602 144.559C125.481 142.796 124.671 140.477 123.73 137.544C123.657 137.318 123.583 137.088 123.509 136.855C122.676 134.247 121.713 131.231 120.305 128.525C118.728 125.492 116.458 122.56 112.857 120.661C110.481 119.408 107.703 119.355 105.124 119.766C102.481 120.187 99.5831 121.167 96.5934 122.514C90.6021 125.214 83.7337 129.621 76.9466 135.041C63.4396 145.826 49.5426 161.195 43.3517 176.382C37.675 190.307 34.0397 206.445 35.8233 224.327C37.6091 242.23 44.802 261.629 60.4007 282.089C64.3859 287.316 77.3264 301.766 81.5894 306.428C89.0608 314.598 101.619 327.514 115.862 338.525C129.937 349.405 146.362 358.991 161.467 359.469C169.735 359.731 177.162 356.902 183.92 352.887C190.383 349.047 196.493 343.955 202.283 339.131C202.503 338.947 202.722 338.765 202.941 338.582C202.942 338.582 202.942 338.581 202.943 338.581L259.932 291.423L259.941 291.415C266.093 286.291 273.636 279.331 278.409 269.179C283.234 258.916 285.061 245.765 280.499 228.552C276.003 211.591 265.638 191.364 256.559 175.573C251.993 167.633 247.705 160.732 244.557 155.816C242.982 153.357 241.692 151.392 240.793 150.039C240.343 149.362 239.992 148.839 239.751 148.482C239.631 148.304 239.539 148.168 239.476 148.076L239.404 147.97L239.385 147.942L239.38 147.934L239.378 147.932C239.378 147.932 239.377 147.931 236.292 150.047L239.377 147.931Z" fill="#F5F9FF"/>
<path d="M239.377 147.931L239.217 147.697L239.023 147.49C232.399 140.401 225.401 133.316 216.547 128.905C207.513 124.405 196.838 122.815 183.065 126.031C169.79 129.131 158.829 135.241 150.079 140.118C149.87 140.235 149.662 140.35 149.455 140.466C144.949 142.976 141.184 145.045 137.871 146.348C134.535 147.659 132.22 147.955 130.488 147.537C128.79 147.126 127.627 146.172 126.602 144.559C125.481 142.796 124.671 140.477 123.73 137.544C123.657 137.318 123.583 137.088 123.509 136.855C122.676 134.247 121.713 131.231 120.305 128.525C118.728 125.492 116.458 122.56 112.857 120.661C110.481 119.408 107.703 119.355 105.124 119.766C102.481 120.187 99.5831 121.167 96.5934 122.514C90.6021 125.214 83.7337 129.621 76.9466 135.041C63.4396 145.826 49.5426 161.195 43.3517 176.382C37.675 190.307 34.0397 206.445 35.8233 224.327C37.6091 242.23 44.802 261.629 60.4007 282.089C64.3859 287.316 77.3264 301.766 81.5894 306.428C89.0608 314.598 101.619 327.514 115.862 338.525C129.937 349.405 146.362 358.991 161.467 359.469C169.735 359.731 177.162 356.902 183.92 352.887C190.383 349.047 196.493 343.955 202.283 339.131C202.503 338.947 202.722 338.765 202.941 338.582C202.942 338.582 202.942 338.581 202.943 338.581L259.932 291.423L259.941 291.415C266.093 286.291 273.636 279.331 278.409 269.179C283.234 258.916 285.061 245.765 280.499 228.552C276.003 211.591 265.638 191.364 256.559 175.573C251.993 167.633 247.705 160.732 244.557 155.816C242.982 153.357 241.692 151.392 240.793 150.039C240.343 149.362 239.992 148.839 239.751 148.482C239.631 148.304 239.539 148.168 239.476 148.076L239.404 147.97L239.385 147.942L239.38 147.934L239.378 147.932C239.378 147.932 239.377 147.931 236.292 150.047L239.377 147.931Z" stroke="#222325" stroke-width="7.48329"/>
<path d="M239.377 147.931L239.217 147.697L239.023 147.49C232.399 140.401 225.401 133.316 216.547 128.905C207.513 124.405 196.838 122.815 183.065 126.031C169.79 129.131 158.829 135.241 150.079 140.118C149.87 140.235 149.662 140.35 149.455 140.466C144.949 142.976 141.184 145.045 137.871 146.348C134.535 147.659 132.22 147.955 130.488 147.537C128.79 147.126 127.627 146.172 126.602 144.559C125.481 142.796 124.671 140.477 123.73 137.544C123.657 137.318 123.583 137.088 123.509 136.855C122.676 134.247 121.713 131.231 120.305 128.525C118.728 125.492 116.458 122.56 112.857 120.661C110.481 119.408 107.703 119.355 105.124 119.766C102.481 120.187 99.5831 121.167 96.5934 122.514C90.6021 125.214 83.7337 129.621 76.9466 135.041C63.4396 145.826 49.5426 161.195 43.3517 176.382C37.675 190.307 34.0397 206.445 35.8233 224.327C37.6091 242.23 44.802 261.629 60.4007 282.089C64.3859 287.316 77.3264 301.766 81.5894 306.428C89.0608 314.598 101.619 327.514 115.862 338.525C129.937 349.405 146.362 358.991 161.467 359.469C169.735 359.731 177.162 356.902 183.92 352.887C190.383 349.047 196.493 343.955 202.283 339.131C202.503 338.947 202.722 338.765 202.941 338.582C202.942 338.582 202.942 338.581 202.943 338.581L259.932 291.423L259.941 291.415C266.093 286.291 273.636 279.331 278.409 269.179C283.234 258.916 285.061 245.765 280.499 228.552C276.003 211.591 265.638 191.364 256.559 175.573C251.993 167.633 247.705 160.732 244.557 155.816C242.982 153.357 241.692 151.392 240.793 150.039C240.343 149.362 239.992 148.839 239.751 148.482C239.631 148.304 239.539 148.168 239.476 148.076L239.404 147.97L239.385 147.942L239.38 147.934L239.378 147.932C239.378 147.932 239.377 147.931 236.292 150.047L239.377 147.931Z" stroke="black" stroke-opacity="0.2" stroke-width="7.48329"/>
<mask id="mask0_426_2003" style="mask-type:alpha" maskUnits="userSpaceOnUse" x="39" y="123" width="241" height="233">
<path d="M236.292 150.047C223.016 135.841 209.929 123.601 183.915 129.676C157.9 135.751 140.99 153.929 129.609 151.175C118.228 148.421 121.98 129.703 111.113 123.973C100.246 118.243 58.5213 149.078 46.8145 177.796C35.8044 204.804 32.919 239.872 63.3741 279.818C67.2365 284.884 80.0499 299.199 84.3486 303.9C99.1652 320.103 133.921 354.853 161.585 355.728C176.2 356.19 188.451 345.781 200.551 335.704L257.549 288.538C269.649 278.461 285.606 262.418 276.884 229.512C268.161 196.606 236.292 150.047 236.292 150.047Z" fill="#EEEFFC"/>
</mask>
<g mask="url(#mask0_426_2003)">
<path d="M237.759 152.363C225.119 138.822 211.537 131.412 186.914 137.064C162.292 142.717 142.597 161.514 126.557 157.557C110.517 153.6 117.074 138.746 106.753 133.26C96.4311 127.774 55.7067 158.863 44.7391 186.068C34.4241 211.655 38.2993 246.534 67.3294 284.58C71.0111 289.405 83.2141 303.048 87.3075 307.528C101.417 322.971 134.499 356.104 160.715 357.054C174.565 357.557 186.128 347.731 197.549 338.219L251.351 293.701C262.771 284.189 284.973 259.231 276.566 227.961C268.158 196.692 237.759 152.363 237.759 152.363Z" fill="#DDEAFD"/>
<path d="M262.786 216.138C267.797 233.177 270.98 248.872 264.792 265.744C258.605 282.615 236.866 298.581 223.339 309.429C171.844 350.725 151.277 347.721 121.747 326.344C92.2175 304.967 58.7181 236.066 48.8395 224.579C48.8395 224.579 38.0335 207.16 69.1046 200.002C100.176 192.844 109.964 190.118 141.49 180.734C173.015 171.351 194.093 162.178 220.471 164.009C246.848 165.839 257.776 199.098 262.786 216.138Z" fill="#A4C2EC"/>
<g filter="url(#filter1_i_426_2003)">
<path d="M264.875 212.936C272.72 228.459 274.939 249.286 269.49 260.926C264.041 272.565 236.609 299.468 221.917 311.154C178.769 345.475 165.259 361.86 121.112 327.994C76.965 294.128 35.9421 234.951 49.2025 211.841C49.2025 211.841 60.2469 223.483 104.787 216.024C149.327 208.565 195.175 177.557 208.3 169.546C221.424 161.535 236.277 164.965 244.647 175.976C253.017 186.987 257.031 197.414 264.875 212.936Z" fill="#1470EF"/>
</g>
<path d="M178.683 262.557C188.874 254.312 193.76 250.818 205.625 248.718" stroke="#222325" stroke-width="7.48329" stroke-linecap="round"/>
<path d="M178.683 262.557C188.874 254.312 193.76 250.818 205.625 248.718" stroke="black" stroke-opacity="0.2" stroke-width="7.48329" stroke-linecap="round"/>
<ellipse cx="8.1962" cy="9.73785" rx="8.1962" ry="9.73785" transform="matrix(0.885336 -0.464952 0.464218 0.885721 141.233 234.789)" fill="#222325"/>
<ellipse cx="8.1962" cy="9.73785" rx="8.1962" ry="9.73785" transform="matrix(0.885336 -0.464952 0.464218 0.885721 141.233 234.789)" fill="black" fill-opacity="0.2"/>
<ellipse cx="8.02229" cy="9.0968" rx="8.02229" ry="9.0968" transform="matrix(0.866438 -0.499285 0.498567 0.866851 178.19 206.276)" fill="#222325"/>
<ellipse cx="8.02229" cy="9.0968" rx="8.02229" ry="9.0968" transform="matrix(0.866438 -0.499285 0.498567 0.866851 178.19 206.276)" fill="black" fill-opacity="0.2"/>
<path d="M110.667 132.829C109.821 138.773 110.64 153.34 120.69 164.059" stroke="#222325" stroke-width="7.48329" stroke-linecap="round" stroke-linejoin="round"/>
<path d="M110.667 132.829C109.821 138.773 110.64 153.34 120.69 164.059" stroke="black" stroke-opacity="0.2" stroke-width="7.48329" stroke-linecap="round" stroke-linejoin="round"/>
</g>
<g filter="url(#filter2_i_426_2003)">
<path fill-rule="evenodd" clip-rule="evenodd" d="M193.161 370.857V426.248H219.822V335.989L193.161 370.857Z" fill="#1470EF"/>
<path d="M217.001 322.767H195.981C194.424 322.767 193.161 324.007 193.161 325.536V370.857L219.822 335.989V325.536C219.822 324.007 218.559 322.767 217.001 322.767Z" fill="#222325"/>
<path d="M217.001 322.767H195.981C194.424 322.767 193.161 324.007 193.161 325.536V370.857L219.822 335.989V325.536C219.822 324.007 218.559 322.767 217.001 322.767Z" fill="black" fill-opacity="0.2"/>
<path d="M172.173 508.914H204.779C210.984 508.914 216.311 505.226 218.61 499.962H161.098C162.107 505.063 166.682 508.914 172.173 508.914Z" fill="#FF6D3B"/>
<path d="M190.34 476.458H181.574C170.151 476.458 160.891 485.55 160.891 496.765V497.838C160.891 498.564 160.962 499.274 161.098 499.962H218.61C219.39 498.177 219.822 496.211 219.822 494.146V489.818V476.458V426.248H193.161V473.689C193.161 475.219 191.898 476.458 190.34 476.458Z" fill="white"/>
</g>
<path d="M189.419 325.536V370.857V426.248V472.717H181.574C168.15 472.717 157.149 483.419 157.149 496.765V497.838C157.149 498.809 157.245 499.762 157.427 500.688C157.428 500.689 157.428 500.69 157.428 500.691C158.788 507.556 164.91 512.656 172.173 512.656H204.779C212.493 512.656 219.153 508.066 222.039 501.459C223.021 499.212 223.563 496.737 223.563 494.146V489.818V476.458V426.248V335.989V325.536C223.563 321.876 220.56 319.025 217.001 319.025H195.981C192.422 319.025 189.419 321.876 189.419 325.536Z" stroke="#222325" stroke-width="7.48329" stroke-linejoin="round"/>
<path d="M189.419 325.536V370.857V426.248V472.717H181.574C168.15 472.717 157.149 483.419 157.149 496.765V497.838C157.149 498.809 157.245 499.762 157.427 500.688C157.428 500.689 157.428 500.69 157.428 500.691C158.788 507.556 164.91 512.656 172.173 512.656H204.779C212.493 512.656 219.153 508.066 222.039 501.459C223.021 499.212 223.563 496.737 223.563 494.146V489.818V476.458V426.248V335.989V325.536C223.563 321.876 220.56 319.025 217.001 319.025H195.981C192.422 319.025 189.419 321.876 189.419 325.536Z" stroke="black" stroke-opacity="0.2" stroke-width="7.48329" stroke-linejoin="round"/>
<path d="M207.6 290.987C206.514 265.123 209.554 208.852 234.557 206.243C259.559 203.635 342.881 195.139 388.892 191.879C392.798 203.398 399.44 239.347 394.752 290.987L261.726 292.377C247.312 312.663 212.423 352.538 188.185 349.753C163.946 346.967 191.028 309.415 207.6 290.987Z" fill="#FABF48"/>
<path d="M158.067 6.03174C169.754 3.4492 192.373 1.26397 189.352 13.1834C186.332 25.1028 167.237 13.382 158.067 6.03174Z" fill="#22285D"/>
<path d="M158.067 6.03174C149.976 16.9579 136.922 39.4061 149.436 41.79C161.95 44.1739 160.404 18.9445 158.067 6.03174Z" fill="#22285D"/>
<path d="M239.197 240.705C210.788 238.718 185.712 146.216 216.017 54.7722C223.522 32.1253 246.574 37.1638 246.574 54.7722C246.574 72.3807 188.751 122.246 184.975 41.7899M158.067 6.03174C149.976 16.9579 136.922 39.4061 149.436 41.79C161.95 44.1739 160.404 18.9445 158.067 6.03174ZM158.067 6.03174C169.754 3.4492 192.373 1.26397 189.352 13.1834C186.332 25.1028 167.237 13.382 158.067 6.03174Z" stroke="#222325" stroke-width="7.48329" stroke-linecap="round" stroke-linejoin="round"/>
<path d="M239.197 240.705C210.788 238.718 185.712 146.216 216.017 54.7722C223.522 32.1253 246.574 37.1638 246.574 54.7722C246.574 72.3807 188.751 122.246 184.975 41.7899M158.067 6.03174C149.976 16.9579 136.922 39.4061 149.436 41.79C161.95 44.1739 160.404 18.9445 158.067 6.03174ZM158.067 6.03174C169.754 3.4492 192.373 1.26397 189.352 13.1834C186.332 25.1028 167.237 13.382 158.067 6.03174Z" stroke="black" stroke-opacity="0.2" stroke-width="7.48329" stroke-linecap="round" stroke-linejoin="round"/>
<path d="M213.602 286.679H250.642" stroke="#222325" stroke-width="7.48329" stroke-linecap="round" stroke-linejoin="round"/>
<path d="M213.602 286.679H250.642" stroke="black" stroke-opacity="0.2" stroke-width="7.48329" stroke-linecap="round" stroke-linejoin="round"/>
<path d="M232.122 213.275C241.448 207.336 259.972 214.039 259.464 288.369" stroke="#222325" stroke-width="7.48329" stroke-linecap="round" stroke-linejoin="round"/>
<path d="M232.122 213.275C241.448 207.336 259.972 214.039 259.464 288.369" stroke="black" stroke-opacity="0.2" stroke-width="7.48329" stroke-linecap="round" stroke-linejoin="round"/>
<ellipse cx="290.62" cy="232.345" rx="11.5748" ry="11.5845" fill="#222325"/>
<ellipse cx="290.62" cy="232.345" rx="11.5748" ry="11.5845" fill="black" fill-opacity="0.2"/>
<path d="M314.315 174.037C299.485 174.037 261.915 178.528 261.915 178.528L272.296 199.984L346.023 192.743C346.023 220.873 369.693 218.54 374.795 207.517C379.898 196.494 381.03 184.154 373.14 178.528C366.843 174.036 350.198 174.036 314.907 174.037L314.315 174.037Z" fill="#1470EF"/>
<path d="M339.031 183.517C338.988 184.363 335.571 191.002 346.023 192.743M346.023 192.743L272.296 199.984L261.915 178.528C261.915 178.528 299.485 174.037 314.315 174.037C350.012 174.037 366.807 174.011 373.14 178.528C381.029 184.154 379.898 196.494 374.795 207.517C369.693 218.54 346.023 220.873 346.023 192.743Z" stroke="#222325" stroke-width="7.48329" stroke-linecap="round" stroke-linejoin="round"/>
<path d="M339.031 183.517C338.988 184.363 335.571 191.002 346.023 192.743M346.023 192.743L272.296 199.984L261.915 178.528C261.915 178.528 299.485 174.037 314.315 174.037C350.012 174.037 366.807 174.011 373.14 178.528C381.029 184.154 379.898 196.494 374.795 207.517C369.693 218.54 346.023 220.873 346.023 192.743Z" stroke="black" stroke-opacity="0.2" stroke-width="7.48329" stroke-linecap="round" stroke-linejoin="round"/>
<g filter="url(#filter3_i_426_2003)">
<path d="M141.247 400.874C110.678 399.021 83.8438 349.942 90.4059 299.873C90.8366 296.586 92.8295 293.584 96.0487 292.803C109.479 289.542 130.11 298.612 127.216 328.384C127.216 328.384 132.942 348.327 148.371 362.637C155.558 353.055 165.139 328.384 165.139 328.384C168.972 308.978 200.593 307.471 196.76 335.807C192.927 364.144 172.867 402.79 141.247 400.874Z" fill="#1470EF"/>
</g>
<path d="M138.692 371.803C144.493 368.067 148.371 362.637 148.371 362.637M148.371 362.637C155.558 353.055 165.139 328.384 165.139 328.384C168.972 308.978 200.593 307.471 196.76 335.807C192.927 364.144 172.867 402.79 141.247 400.874C110.678 399.021 83.8438 349.942 90.4059 299.873C90.8366 296.586 92.8295 293.584 96.0487 292.803C109.479 289.542 130.11 298.612 127.216 328.384C127.216 328.384 132.942 348.327 148.371 362.637Z" stroke="#222325" stroke-width="7.48329" stroke-linecap="round" stroke-linejoin="round"/>
<path d="M138.692 371.803C144.493 368.067 148.371 362.637 148.371 362.637M148.371 362.637C155.558 353.055 165.139 328.384 165.139 328.384C168.972 308.978 200.593 307.471 196.76 335.807C192.927 364.144 172.867 402.79 141.247 400.874C110.678 399.021 83.8438 349.942 90.4059 299.873C90.8366 296.586 92.8295 293.584 96.0487 292.803C109.479 289.542 130.11 298.612 127.216 328.384C127.216 328.384 132.942 348.327 148.371 362.637Z" stroke="black" stroke-opacity="0.2" stroke-width="7.48329" stroke-linecap="round" stroke-linejoin="round"/>
<path d="M338.723 194.237L268.463 202.526L269.953 213.828L348.909 216.13C345.33 209.514 344.315 203.173 343.852 198.419C343.599 195.817 341.318 193.931 338.723 194.237Z" fill="#FABF48"/>
<path d="M296.531 294.042H270.334L274.807 512.655H296.531V294.042Z" fill="#222325"/>
<path d="M296.531 294.042H270.334L274.807 512.655H296.531V294.042Z" fill="black" fill-opacity="0.2"/>
<path d="M320.846 124.459H284.426L285.455 144.814H320.846V124.459Z" fill="#222325"/>
<path d="M320.846 124.459H284.426L285.455 144.814H320.846V124.459Z" fill="black" fill-opacity="0.2"/>
<path d="M289.928 229.141L285.455 144.814M285.455 144.814L284.426 124.459H320.846V144.814H285.455ZM270.334 294.042H296.531V512.655H274.807L270.334 294.042Z" stroke="#222325" stroke-width="7.48329" stroke-linecap="round" stroke-linejoin="round"/>
<path d="M289.928 229.141L285.455 144.814M285.455 144.814L284.426 124.459H320.846V144.814H285.455ZM270.334 294.042H296.531V512.655H274.807L270.334 294.042Z" stroke="black" stroke-opacity="0.2" stroke-width="7.48329" stroke-linecap="round" stroke-linejoin="round"/>
<line x1="139.376" y1="512.655" x2="387.261" y2="512.655" stroke="#222325" stroke-width="7.48329" stroke-linecap="round"/>
<line x1="139.376" y1="512.655" x2="387.261" y2="512.655" stroke="black" stroke-opacity="0.2" stroke-width="7.48329" stroke-linecap="round"/>
<path d="M198.429 475.654C206.286 477.19 211.5 481.131 211.5 481.131" stroke="#222325" stroke-width="7.48329" stroke-linecap="round"/>
<path d="M198.429 475.654C206.286 477.19 211.5 481.131 211.5 481.131" stroke="black" stroke-opacity="0.2" stroke-width="7.48329" stroke-linecap="round"/>
<line x1="195.033" y1="424.655" x2="218.301" y2="424.655" stroke="#222325" stroke-width="7.48329" stroke-linecap="round"/>
<line x1="195.033" y1="424.655" x2="218.301" y2="424.655" stroke="black" stroke-opacity="0.2" stroke-width="7.48329" stroke-linecap="round"/>
<line x1="160.32" y1="499.076" x2="220.651" y2="499.076" stroke="#222325" stroke-width="7.48329" stroke-linecap="round"/>
<line x1="160.32" y1="499.076" x2="220.651" y2="499.076" stroke="black" stroke-opacity="0.2" stroke-width="7.48329" stroke-linecap="round"/>
<defs>
<filter id="filter0_i_426_2003" x="210.272" y="266.818" width="198.87" height="132.77" filterUnits="userSpaceOnUse" color-interpolation-filters="sRGB">
<feFlood flood-opacity="0" result="BackgroundImageFix"/>
<feBlend mode="normal" in="SourceGraphic" in2="BackgroundImageFix" result="shape"/>
<feColorMatrix in="SourceAlpha" type="matrix" values="0 0 0 0 0 0 0 0 0 0 0 0 0 0 0 0 0 0 127 0" result="hardAlpha"/>
<feOffset dx="-4.67706" dy="-15.902"/>
<feGaussianBlur stdDeviation="1.40312"/>
<feComposite in2="hardAlpha" operator="arithmetic" k2="-1" k3="1"/>
<feColorMatrix type="matrix" values="0 0 0 0 0.141667 0 0 0 0 0.170204 0 0 0 0 0.425 0 0 0 0.34 0"/>
<feBlend mode="darken" in2="shape" result="effect1_innerShadow_426_2003"/>
</filter>
<filter id="filter1_i_426_2003" x="46.6708" y="163.286" width="226.757" height="183.322" filterUnits="userSpaceOnUse" color-interpolation-filters="sRGB">
<feFlood flood-opacity="0" result="BackgroundImageFix"/>
<feBlend mode="normal" in="SourceGraphic" in2="BackgroundImageFix" result="shape"/>
<feColorMatrix in="SourceAlpha" type="matrix" values="0 0 0 0 0 0 0 0 0 0 0 0 0 0 0 0 0 0 127 0" result="hardAlpha"/>
<feOffset dx="0.935412" dy="-11.2249"/>
<feGaussianBlur stdDeviation="0.935412"/>
<feComposite in2="hardAlpha" operator="arithmetic" k2="-1" k3="1"/>
<feColorMatrix type="matrix" values="0 0 0 0 0.321569 0 0 0 0 0.376471 0 0 0 0 0.866667 0 0 0 0.6 0"/>
<feBlend mode="normal" in2="shape" result="effect1_innerShadow_426_2003"/>
</filter>
<filter id="filter2_i_426_2003" x="150.601" y="312.477" width="76.7037" height="203.92" filterUnits="userSpaceOnUse" color-interpolation-filters="sRGB">
<feFlood flood-opacity="0" result="BackgroundImageFix"/>
<feBlend mode="normal" in="SourceGraphic" in2="BackgroundImageFix" result="shape"/>
<feColorMatrix in="SourceAlpha" type="matrix" values="0 0 0 0 0 0 0 0 0 0 0 0 0 0 0 0 0 0 127 0" result="hardAlpha"/>
<feOffset dx="-10.2895" dy="-15.902"/>
<feGaussianBlur stdDeviation="1.40312"/>
<feComposite in2="hardAlpha" operator="arithmetic" k2="-1" k3="1"/>
<feColorMatrix type="matrix" values="0 0 0 0 0.141667 0 0 0 0 0.170204 0 0 0 0 0.425 0 0 0 0.34 0"/>
<feBlend mode="darken" in2="shape" result="effect1_innerShadow_426_2003"/>
</filter>
<filter id="filter3_i_426_2003" x="82.8617" y="285.626" width="117.96" height="119.06" filterUnits="userSpaceOnUse" color-interpolation-filters="sRGB">
<feFlood flood-opacity="0" result="BackgroundImageFix"/>
<feBlend mode="normal" in="SourceGraphic" in2="BackgroundImageFix" result="shape"/>
<feColorMatrix in="SourceAlpha" type="matrix" values="0 0 0 0 0 0 0 0 0 0 0 0 0 0 0 0 0 0 127 0" result="hardAlpha"/>
<feOffset dx="-4.67706" dy="-15.902"/>
<feGaussianBlur stdDeviation="1.40312"/>
<feComposite in2="hardAlpha" operator="arithmetic" k2="-1" k3="1"/>
<feColorMatrix type="matrix" values="0 0 0 0 0.321569 0 0 0 0 0.376471 0 0 0 0 0.866667 0 0 0 0.6 0"/>
<feBlend mode="normal" in2="shape" result="effect1_innerShadow_426_2003"/>
</filter>
</defs>
</svg>
